<svg width="121.4661376953125px" height="122.00003662109374px" xmlns="http://www.w3.org/2000/svg" viewBox="189.26693115234374 13.99998168945313 121.4661376953125 122.00003662109374" style="background: rgba(0, 0, 0, 0);" preserveAspectRatio="xMidYMid"><defs><filter id="editing-jagged" x="-100%" y="-100%" width="300%" height="300%"><feTurbulence result="turb" baseFrequency="0.1" numOctaves="1" seed="1"></feTurbulence><feDisplacementMap in="SourceGraphic" in2="turb" scale="10"></feDisplacementMap></filter></defs><g filter="url(#editing-jagged)"><g transform="translate(214.5666064620018, 97.33500099182129)"><path d="M27.84-9.86L27.84-9.86L27.84-9.86Q29.06-8.32 29.06-5.34L29.06-5.34L29.06-5.34Q29.06-2.37 26.78-0.54L26.78-0.54L26.78-0.54Q24.51 1.28 20.54 1.28L20.54 1.28L20.54 1.28Q18.24 1.28 14.66 0.77L14.66 0.77L14.66 0.77Q7.62-0.32 5.60-0.32L5.60-0.32L5.60-0.32Q3.58-0.32 2.75-0.22L2.75-0.22L2.75-0.22Q1.92-0.13 0.58 0L0.58 0L8.32-42.24L22.34-42.24L15.94-7.04L15.94-7.04Q16.77-6.91 17.54-6.91L17.54-6.91L19.14-6.91L19.14-6.91Q24.51-6.91 27.84-9.86ZM35.33-39.87L35.33-39.87L35.33-39.87Q38.34-43.39 43.33-43.39L43.33-43.39L43.33-43.39Q47.30-43.39 49.41-41.86L49.41-41.86L49.41-41.86Q51.52-40.26 52.93-36.35L52.93-36.35L55.62-28.74L65.28-42.18L73.92-42.18L58.24-21.38L62.27-9.98L62.27-9.98Q63.17-7.42 64.74-5.54L64.74-5.54L64.74-5.54Q66.30-3.65 67.71-3.33L67.71-3.33L67.71-3.33Q66.43-0.90 64.22 0.19L64.22 0.19L64.22 0.19Q62.02 1.28 58.78 1.28L58.78 1.28L58.78 1.28Q55.55 1.28 53.28-0.83L53.28-0.83L53.28-0.83Q51.01-2.94 49.28-7.68L49.28-7.68L47.42-12.80L37.76 0L29.89 0L44.61-20.42L40-33.28L40-33.28Q38.98-36.10 37.95-37.54L37.95-37.54L37.95-37.54Q36.93-38.98 35.33-39.87Z" fill="#444"></path></g></g><style>text {
  font-size: 64px;
  font-family: Arial Black;
  dominant-baseline: central;
  text-anchor: middle;
}</style></svg>